# AST/ASF file generated using VICON BodyLanguage
# -----------------------------------------------
:version 1.10
:name VICON
:units
  mass 1.0
  length 0.45
  angle deg
:documentation
   .ast/.asf automatically generated from VICON data using
   VICON BodyBuilder and BodyLanguage model FoxedUp or BRILLIANT.MOD
:root
   order TX TY TZ RX RY RZ
   axis XYZ
   position 0 0 0  
   orientation 0 0 0 
:bonedata
  begin
     id 1 
     name lhipjoint
     direction 0.575328 -0.747301 0.332475 
     length 2.40933 
     axis 0 0 0  XYZ
  end
  begin
     id 2 
     name lfemur
     direction 0.34202 -0.939693 0  
     length 7.31453  
     axis 0 0 20  XYZ
    dof rx ry rz
    limits (-160.0 20.0)
           (-70.0 70.0)
           (-60.0 70.0)
  end
  begin
     id 3 
     name ltibia
     direction 0.34202 -0.939693 0   
     length 7.82185   
     axis 0 0 20   XYZ
    dof rx
    limits (-10.0 170.0)
  end
  begin
     id 4 
     name lfoot
     direction 0.0795993 -0.218697 0.972541   
     length 2.19173   
     axis -90 7.62852e-016 20   XYZ
    dof rx rz
    limits (-45.0 90.0)
           (-70.0 20.0)
  end
  begin
     id 5 
     name ltoes
     direction 1.53537e-011 -4.21894e-011 1   
     length 1.10023   
     axis -90 7.62852e-016 20   XYZ
    dof rx
    limits (-90.0 20.0)
  end
  begin
     id 6 
     name rhipjoint
     direction -0.513884 -0.783789 0.348708   
     length 2.29716  
     axis 0 0 0  XYZ 
  end
  begin
     id 7 
     name rfemur
     direction -0.34202 -0.939693 0   
     length 7.59573   
     axis 0 0 -20   XYZ
    dof rx ry rz
    limits (-160.0 20.0)
           (-70.0 70.0)
           (-70.0 60.0)
  end
  begin
     id 8 
     name rtibia
     direction -0.34202 -0.939693 0   
     length 7.66402   
     axis 0 0 -20   XYZ
    dof rx
    limits (-10.0 170.0)
 end
 begin
     id 9 
     name rfoot
     direction -0.137793 -0.378584 0.915253   
     length 2.27056  
     axis -90 -7.62852e-016 -20   XYZ
    dof rx rz
    limits (-45.0 90.0)
           (-20.0 70.0)
  end
  begin
     id 10 
     name rtoes
     direction -1.53493e-011 -4.22159e-011 1   
     length 1.11766   
     axis -90 -7.62852e-016 -20   XYZ
    dof rx
    limits (-90.0 20.0)
  end
  begin
     id 11 
     name lowerback
     direction -0.00732775 0.998356 -0.05685   
     length 2.16513   
     axis 0 0 0   XYZ
    dof rx ry rz
    limits (-20.0 45.0)
           (-30.0 30.0)
           (-30.0 30.0)
  end
  begin
     id 12 
     name upperback
     direction 0.0218081 0.999627 -0.0164647   
     length 2.16755   
     axis 0 0 0   XYZ
    dof rx ry rz
    limits (-20.0 45.0)
           (-30.0 30.0)
           (-30.0 30.0)
  end
  begin
     id 13 
     name thorax
     direction 0.02365 0.999661 0.0108914   
     length 2.16932   
     axis 0 0 0   XYZ
    dof rx ry rz
    limits (-20.0 45.0)
           (-30.0 30.0)
           (-30.0 30.0)
  end
  begin
     id 14 
     name lowerneck
     direction -0.0523929 0.978385 0.200044   
     length 1.63877   
     axis 0 0 0   XYZ
    dof rx ry rz
    limits (-20.0 45.0)
           (-30.0 30.0)
           (-30.0 30.0)
  end
  begin
     id 15 
     name upperneck
     direction 0.0448674 0.981321 -0.187074   
     length 1.69014   
     axis 0 0 0   XYZ
    dof rx ry rz
    limits (-20.0 45.0)
           (-30.0 30.0)
           (-30.0 30.0)
  end
  begin
     id 16
     name head
     direction 0.0199089 0.996118 -0.0857429  
     length 1.70094  
     axis 0 0 0   XYZ
    dof rx ry rz
    limits (-20.0 45.0)
           (-30.0 30.0)
           (-30.0 30.0)
  end
  begin
     id 17 
     name lclavicle
     direction 0.940366 0.30191 -0.156722  
     length 3.37521  
     axis 0 0 0   XYZ
    dof ry rz
    limits (-20.0 10.0)
           (0.0 20.0)
  end
  begin
     id 18 
     name lhumerus
     direction 1 -4.4897e-011 -1.7911e-027   
     length 5.25287   
     axis 180 -30 -90   XYZ
    dof rx ry rz
    limits (-60.0 90.0)
           (-90.0 90.0)
           (-90.0 90.0)
  end
  begin
     id 19
     name lradius
     direction 1 -4.48951e-011 1.04424e-027   
     length 3.51014   
     axis 180 -30 -90   XYZ
    dof rx
    limits (-10.0 170.0)
  end
  begin
     id 20
     name lwrist
     direction 1 -4.48997e-011 -9.5942e-028   
     length 1.75507   
     axis 8.48502e-016 90 90   XYZ
    dof ry
    limits (-180.0 0.0)
 end
  begin
     id 21 
     name lhand
     direction 1 -4.48831e-011 -1.90777e-027   
     length 0.706179   
     axis 1.22306e-015 90 90   XYZ
    dof rx rz
    limits (-90.0 90.0)
           (-45.0 45.0)
  end
  begin
     id 22 
     name lfingers
     direction 1 -4.49108e-011 -3.85244e-027   
     length 0.569339   
     axis 2.44611e-015 90 90   XYZ
    dof rx
    limits (0.0 90.0)
  end
  begin
     id 23
     name lthumb
     direction 0.707107 -6.34953e-011 0.707107   
     length 0.817461   
     axis -90 45 -1.62303e-014   XYZ
    dof rx rz
    limits (-45.0 45.0)
           (-45.0 45.0)
  end
  begin
     id 24 
     name rclavicle
     direction -0.905329 0.382405 -0.184787   
     length 3.30787  
     axis 0 0 0   XYZ 
    dof ry rz
    limits (-10.0 20.0)
           (-20.0 0.0)
  end
  begin
     id 25 
     name rhumerus
     direction -1 -4.48953e-011 -9.15316e-029  
     length 5.28721   
     axis 180 30 90   XYZ
    dof rx ry rz
    limits (-90.0 60.0)
           (-90.0 90.0)
           (-90.0 90.0)
  end
  begin
     id 26 
     name rradius
     direction -1 -4.48987e-011 9.37824e-028   
     length 3.50544   
     axis 180 30 90   XYZ
    dof rx
    limits (-10.0 170.0)
  end
  begin
     id 27 
     name rwrist
     direction -1 -4.48967e-011 -9.58414e-028   
     length 1.75272   
     axis 8.48502e-016 -90 -90   XYZ
    dof ry
    limits (-180.0 0.0)
  end
  begin
     id 28
     name rhand
     direction -1 -4.48904e-011 -1.91266e-027   
     length 0.884996   
     axis 1.22306e-015 -90 -90   XYZ
    dof rx rz
    limits (-90.0 90.0)
           (-45.0 45.0)
  end
  begin
     id 29
     name rfingers
     direction -1 -4.4909e-011 -3.85015e-027   
     length 0.713507   
     axis 2.44611e-015 -90 -90   XYZ
    dof rx
    limits (0.0 90.0)
  end
  begin
     id 30
     name rthumb
     direction -0.707107 -6.34853e-011 0.707107   
     length 1.02446   
     axis -90 -45 1.62303e-014   XYZ
    dof rx rz
    limits (-45.0 45.0)
           (-45.0 45.0)
  end
:hierarchy
  begin
    root lhipjoint rhipjoint lowerback
    lhipjoint lfemur
    lfemur ltibia
    ltibia lfoot
    lfoot ltoes
    rhipjoint rfemur
    rfemur rtibia
    rtibia rfoot
    rfoot rtoes
    lowerback upperback
    upperback thorax
    thorax lowerneck lclavicle rclavicle
    lowerneck upperneck
    upperneck head
    lclavicle lhumerus
    lhumerus lradius
    lradius lwrist
    lwrist lhand lthumb
    lhand lfingers
    rclavicle rhumerus
    rhumerus rradius
    rradius rwrist
    rwrist rhand rthumb
    rhand rfingers
  end

#!OML:ASF F:\twosubjects\two\Thursday\Session 1\justin.ASF
:FULLY-SPECIFIED
:DEGREES
193
root 10.9074 17.6065 4.88947 6.54863 -5.778 -2.19722
lowerback 4.28342 0.968151 1.20624
upperback 1.50534 1.35765 1.85094
thorax -0.872342 0.67567 1.15449
lowerneck -16.2463 -11.1765 -15.1487
upperneck 14.2863 -14.1523 13.0663
head 9.20861 -6.34641 4.91258
rclavicle 1.69961e-014 9.93923e-015
rhumerus -31.6995 30.9734 -91.8571
rradius 109.028
rwrist 17.3503
rhand -23.3011 34.9595
rfingers 7.12502
rthumb 3.15235 5.00307
lclavicle 1.69961e-014 9.93923e-015
lhumerus -35.0059 18.5453 73.5836
lradius 36.3754
lwrist -15.353
lhand 3.81713 36.1108
lfingers 7.12502
lthumb 29.2411 63.8328
rfemur 3.10678 -0.824847 13.8062
rtibia 33.1538
rfoot -15.7423 -17.1591
rtoes -33.1569
lfemur -29.8424 6.51584 -12.6551
ltibia 38.3053
lfoot -14.4478 0.188197
ltoes -11.9324
194
root 10.9904 17.6258 5.04242 6.2547 -5.65094 -2.20351
lowerback 4.72941 1.01724 1.12622
upperback 1.4354 1.43355 1.9766
thorax -1.19915 0.712718 1.31542
lowerneck -15.8698 -11.4167 -15.5175
upperneck 14.1305 -14.4886 13.3051
head 9.18978 -6.51851 5.00541
rclavicle -1.08338e-014 2.54444e-014
rhumerus -32.2914 30.7863 -91.9796
rradius 107.438
rwrist 17.2391
rhand -21.7262 33.5591
rfingers 7.12502
rthumb 4.67311 3.63059
lclavicle -1.08338e-014 2.54444e-014
lhumerus -35.3656 18.7189 73.6702
lradius 36.7378
lwrist -14.9037
lhand 3.1991 35.4452
lfingers 7.12502
lthumb 28.6508 63.2685
rfemur 2.70001 -0.797251 13.5407
rtibia 35.3375
rfoot -14.2732 -16.8889
rtoes -30.8115
lfemur -29.0728 6.84955 -12.969
ltibia 38.7005
lfoot -15.1799 -0.379478
ltoes -11.0621
195
root 11.0753 17.6417 5.19103 6.34336 -5.65183 -1.76495
lowerback 4.75627 1.09275 0.609087
upperback 1.29856 1.51346 1.95595
thorax -1.36871 0.75361 1.57745
lowerneck -16.0631 -11.7075 -15.7023
upperneck 14.4474 -14.8557 13.2899
head 9.40265 -6.68738 4.9542
rclavicle -9.44227e-015 -8.34896e-015
rhumerus -32.7635 30.5058 -92.027
rradius 105.911
rwrist 17.1365
rhand -20.2865 32.9854
rfingers 7.12502
rthumb 6.06322 3.09215
lclavicle -9.44227e-015 -8.34896e-015
lhumerus -35.8021 19.3724 73.5645
lradius 37.4742
lwrist -14.9113
lhand 3.01651 35.7534
lfingers 7.12502
lthumb 28.4763 63.606
rfemur 1.60342 -0.741413 12.7715
rtibia 37.5446
rfoot -12.2643 -16.7523
rtoes -27.4565
lfemur -28.8217 6.84027 -13.7096
ltibia 39.061
lfoot -15.7943 -0.920487
ltoes -6.89074
196
root 11.1564 17.6519 5.32835 6.33861 -5.50751 -1.33958
lowerback 4.85182 1.13748 0.156591
upperback 1.23133 1.55249 1.85864
thorax -1.50132 0.774711 1.72627
lowerneck -16.0199 -12.0291 -15.9768
upperneck 14.5717 -15.3356 13.62
head 9.56728 -6.89447 5.02374
rclavicle -2.92213e-014 -9.54166e-015
rhumerus -33.2126 30.1315 -92.1758
rradius 104.5
rwrist 17.012
rhand -19.0744 32.5004
rfingers 7.12502
rthumb 7.23337 2.64402
lclavicle -2.92213e-014 -9.54166e-015
lhumerus -35.8597 19.6607 73.4629
lradius 37.8492
lwrist -14.5593
lhand 3.93229 36.7875
lfingers 7.12502
lthumb 29.351 64.4903
rfemur 0.38323 -0.569981 12.1576
rtibia 39.8646
rfoot -9.72842 -16.8478
rtoes -24.3759
lfemur -28.5801 6.89524 -14.5689
ltibia 39.2602
lfoot -16.5267 -0.934725
ltoes -7.454
197
root 11.2295 17.6554 5.46261 6.19191 -5.24509 -1.19727
lowerback 5.3739 1.11111 -0.057154
upperback 0.932734 1.5164 1.82506
thorax -2.10342 0.760777 1.8008
lowerneck -15.1388 -12.1576 -16.4497
upperneck 14.3101 -15.6582 14.2778
head 9.4769 -7.05503 5.30196
rclavicle 1.21259e-014 -2.5842e-014
rhumerus -34.124 29.9606 -92.6206
rradius 103.16
rwrist 16.9492
rhand -17.9558 31.8385
rfingers 7.12502
rthumb 8.31296 2.02202
lclavicle 1.21259e-014 -2.5842e-014
lhumerus -36.3712 19.4369 73.1868
lradius 38.0541
lwrist -13.9823
lhand 4.02392 36.9395
lfingers 7.12502
lthumb 29.4385 64.6269
rfemur -0.813773 -0.410296 11.9598
rtibia 42.2616
rfoot -6.94721 -17.3059
rtoes -21.8614
lfemur -28.0114 7.02908 -15.1126
ltibia 39.2903
lfoot -17.0488 -0.593742
ltoes -12.5561
198
root 11.3111 17.6532 5.59847 5.88253 -4.72625 -0.737551
lowerback 5.93041 0.985358 -0.419646
upperback 0.717104 1.33052 1.67981
thorax -2.6353 0.673986 1.85763
lowerneck -14.1763 -12.1426 -16.6777
upperneck 13.8256 -15.8013 14.839
head 9.23867 -7.1383 5.54617
rclavicle -1.90833e-014 7.95139e-015
rhumerus -34.8013 29.7235 -93.0329
rradius 101.746
rwrist 16.9453
rhand -17.1165 31.3501
rfingers 7.12502
rthumb 9.12292 1.56738
lclavicle -1.90833e-014 7.95139e-015
lhumerus -36.9722 19.4848 72.7709
lradius 38.4834
lwrist -14.1565
lhand 3.10681 36.6031
lfingers 7.12502
lthumb 28.5626 64.4412
rfemur -1.72428 -0.606814 11.3386
rtibia 44.6965
rfoot -4.77815 -17.6987
rtoes -17.3151
lfemur -27.1266 6.5889 -15.8375
ltibia 39.2608
lfoot -17.2362 -0.17513
ltoes -19.0993
199
root 11.3851 17.6484 5.72702 5.60615 -4.16865 -0.378397
lowerback 5.86341 0.876824 -0.768638
upperback 1.03069 1.15773 1.59464
thorax -2.27359 0.586679 1.98332
lowerneck -14.0737 -12.2696 -16.5002
upperneck 13.3784 -16.0318 15.097
head 9.11815 -7.22609 5.56758
rclavicle 2.38542e-015 2.10712e-014
rhumerus -34.1939 29.478 -92.879
rradius 99.9755
rwrist 16.6681
rhand -16.6616 30.7098
rfingers 7.12502
rthumb 9.56183 0.946797
lclavicle 2.38542e-015 2.10712e-014
lhumerus -36.6031 19.9824 72.6292
lradius 38.7213
lwrist -14.6116
lhand 2.79131 36.4368
lfingers 7.12502
lthumb 28.2611 64.3252
rfemur -2.63069 -0.587747 10.9501
rtibia 47.1136
rfoot -2.98721 -17.999
rtoes -11.5792
lfemur -26.3422 6.07017 -16.383
ltibia 39.0481
lfoot -18.2697 -1.60703
ltoes -4.20653
